#!OML:ASF F:\VICON\USERDATA\INSTALL\rory3\rory3.ASF
:FULLY-SPECIFIED
:DEGREES
465
root 8.01336 16.0244 10.4051 3.13426 27.3561 4.06707
lowerback 2.7781 -11.6039 -5.61269
upperback -5.1891 -15.4754 11.0854
thorax -2.4151 -7.57409 15.359
lowerneck -9.59977 -4.21893 -14.0279
upperneck 19.8816 -3.9864 3.00883
head 8.13905 -2.66383 2.91407
rclavicle -1.08338e-014 3.18055e-014
rhumerus -56.5738 -34.6447 -34.0418
rradius 21.9032
rwrist -10.6676
rhand -17.1373 10.0265
rfingers 7.12502
rthumb 9.10281 -19.7571
lclavicle -1.08338e-014 3.18055e-014
lhumerus 105.962 -68.8879 32.7967
lradius 79.8107
lwrist 0.541155
lhand -18.9326 16.5305
lfingers 7.12502
lthumb 7.37025 46.3821
rfemur -40.1312 -7.49535 30.8102
rtibia 60.1267
rfoot -20.3147 -7.01992
rtoes 40.1486
lfemur -0.874038 14.3491 -32.9702
ltibia 55.3745
lfoot 22.3771 -20.9246
ltoes 28.7392
466
root 8.07286 16.0794 10.4912 3.25377 27.5925 4.41739
lowerback 2.63625 -11.1362 -6.04911
upperback -4.96417 -14.8837 10.8637
thorax -2.22418 -7.28145 15.3334
lowerneck -9.57252 -4.41105 -13.8909
upperneck 19.9862 -4.29945 3.11834
head 8.19484 -2.79346 2.89649
rclavicle 4.3832e-014 0
rhumerus -55.1231 -34.6629 -35.4543
rradius 22.1467
rwrist -10.6827
rhand -15.8166 9.20147
rfingers 7.12502
rthumb 10.3771 -20.5225
lclavicle 4.3832e-014 0
lhumerus 102.642 -69.0357 34.3285
lradius 79.7822
lwrist 0.52932
lhand -18.7333 17.6164
lfingers 7.12502
lthumb 7.56254 47.4612
rfemur -39.405 -8.20578 30.3832
rtibia 59.5558
rfoot -20.4479 -6.6649
rtoes 39.5859
lfemur -1.25993 14.0572 -32.5448
ltibia 56.448
lfoot 21.343 -20.0874
ltoes 27.9389
467
root 8.131 16.1401 10.5756 3.26296 27.7809 4.44936
lowerback 2.21831 -10.6751 -6.11155
upperback -4.49305 -14.2761 10.6892
thorax -1.69941 -7.02304 15.0589
lowerneck -10.4091 -4.67694 -14.002
upperneck 20.5167 -4.63222 3.69177
head 8.5694 -2.91162 3.06253
rclavicle 3.84648e-014 2.22639e-014
rhumerus -53.2579 -34.7916 -37.3302
rradius 22.4598
rwrist -10.6816
rhand -15.0088 9.52926
rfingers 7.12502
rthumb 11.1563 -20.1542
lclavicle 3.84648e-014 2.22639e-014
lhumerus 99.7361 -68.7225 35.3634
lradius 79.3017
lwrist 0.50442
lhand -18.0251 18.5117
lfingers 7.12502
lthumb 8.24609 48.3307
rfemur -38.6385 -8.85009 30.2648
rtibia 58.8835
rfoot -20.5315 -6.34443
rtoes 39.0759
lfemur -1.82979 13.8816 -31.8442
ltibia 57.5807
lfoot 19.7011 -19.445
ltoes 25.1011
468
root 8.18943 16.2008 10.6654 2.95953 27.9816 3.99607
lowerback 1.714 -10.2092 -5.61145
upperback -3.93139 -13.6303 10.5099
thorax -1.16852 -6.75247 14.4491
lowerneck -10.912 -5.07267 -14.0586
upperneck 20.6711 -5.19665 4.1887
head 8.77968 -3.12989 3.16869
rclavicle -6.02318e-014 1.17681e-013
rhumerus -51.6591 -35.4167 -38.759
rradius 22.6989
rwrist -9.85332
rhand -14.9342 10.0668
rfingers 7.12502
rthumb 11.2282 -19.6127
lclavicle -6.02318e-014 1.17681e-013
lhumerus 97.149 -68.4102 36.0207
lradius 78.3984
lwrist 0.52373
lhand -17.0522 19.348
lfingers 7.12502
lthumb 9.18493 49.1279
rfemur -37.6798 -9.42584 30.5773
rtibia 58.143
rfoot -20.6982 -6.04463
rtoes 38.8149
lfemur -2.39554 13.7049 -30.691
ltibia 58.7737
lfoot 17.4626 -19.0367
ltoes 20.9646
469
root 8.24494 16.2619 10.7571 2.6876 28.1069 3.66583
lowerback 2.15383 -9.71105 -5.63964
upperback -3.95603 -12.9553 10.7003
thorax -1.58087 -6.37842 14.8515
lowerneck -10.5658 -5.48057 -14.3039
upperneck 20.4116 -5.70619 3.91645
head 8.68397 -3.40962 3.05658
rclavicle -7.37491e-014 3.18055e-014
rhumerus -50.035 -35.0414 -39.5664
rradius 23.075
rwrist -8.94676
rhand -15.143 10.4536
rfingers 7.12502
rthumb 11.0268 -19.2368
lclavicle -7.37491e-014 3.18055e-014
lhumerus 92.9523 -68.4033 38.8145
lradius 77.1365
lwrist 0.649321
lhand -15.5772 20.1956
lfingers 7.12502
lthumb 10.608 49.9079
rfemur -36.7199 -9.74029 30.71
rtibia 57.3726
rfoot -20.8531 -5.82696
rtoes 39.295
lfemur -2.99852 13.5524 -29.647
ltibia 59.9792
lfoot 15.3037 -18.2829
ltoes 17.2154
470
root 8.30076 16.3223 10.8444 2.63732 28.2084 3.65533
lowerback 2.03222 -9.26935 -5.51561
upperback -3.75111 -12.3567 10.4766
thorax -1.54596 -6.07928 14.5238
lowerneck -10.0346 -5.80193 -14.4936
upperneck 20.0492 -6.28105 4.31774
head 8.53832 -3.6506 3.16582
rclavicle -1.7503e-013 -6.36111e-015
rhumerus -48.4263 -34.3288 -41.4385
rradius 23.9975
rwrist -9.10656
rhand -15.512 11.1626
rfingers 7.12502
rthumb 10.6709 -18.5465
lclavicle -1.7503e-013 -6.36111e-015
lhumerus 89.1578 -68.3884 40.7683
lradius 75.4292
lwrist 0.672017
lhand -13.4795 20.1306
lfingers 7.12502
lthumb 12.6309 49.7287
rfemur -35.9178 -9.96244 30.4859
rtibia 56.6183
rfoot -20.9969 -5.46838
rtoes 40.4852
lfemur -3.71976 13.3835 -28.9606
ltibia 61.1476
lfoot 13.1929 -17.2242
ltoes 13.7154
471
root 8.35313 16.3839 10.9257 2.61069 28.3409 3.62368
lowerback 2.30611 -8.87473 -5.23797
upperback -3.92481 -11.7983 10.2184
thorax -2.15569 -5.74532 14.1901
lowerneck -9.05766 -5.91796 -14.7216
upperneck 19.9268 -6.66074 4.81708
head 8.38131 -3.80926 3.35125
rclavicle 7.47927e-014 -1.90833e-014
rhumerus -47.1928 -32.6339 -43.3684
rradius 25.172
rwrist -10.1424
rhand -16.2515 12.1054
rfingers 7.12502
rthumb 9.95757 -17.639
lclavicle 7.47927e-014 -1.90833e-014
lhumerus 83.5334 -68.8066 44.5304
lradius 73.2251
lwrist 0.234816
lhand -11.803 20.8984
lfingers 7.12502
lthumb 14.2468 50.3898
rfemur -35.1056 -10.1983 30.3341
rtibia 55.8559
rfoot -21.076 -5.23935
rtoes 40.8082
lfemur -4.497 13.2617 -28.2362
ltibia 62.2723
lfoot 11.1607 -16.1286
ltoes 10.5703
472
root 8.40073 16.4451 11.0105 2.51558 28.4825 3.54237
lowerback 2.74576 -8.50333 -4.96108
upperback -4.17366 -11.2699 9.96539
thorax -2.91908 -5.41717 13.8932
lowerneck -8.22748 -6.05519 -14.7003
upperneck 19.7991 -7.03453 5.05618
head 8.233 -3.97109 3.40658
rclavicle 6.46112e-014 -7.63333e-014
rhumerus -46.1731 -30.9197 -44.9945
rradius 26.3305
rwrist -11.0882
rhand -17.1992 13.2101
rfingers 7.12502
rthumb 9.04313 -16.5761
lclavicle 6.46112e-014 -7.63333e-014
lhumerus 78.6887 -69.1589 47.3977
lradius 71.1057
lwrist 0.384478
lhand -10.9672 23.4705
lfingers 7.12502
lthumb 15.0521 52.9033
rfemur -34.1608 -10.387 30.2779
rtibia 55.0883
rfoot -21.1479 -5.24267
rtoes 40.348
lfemur -5.21474 13.1453 -27.4126
ltibia 63.3276
lfoot 9.41022 -14.9269
ltoes 6.61623
473
root 8.44488 16.5032 11.1034 2.42156 28.4782 3.45866
lowerback 3.13033 -8.13358 -4.75679
upperback -4.37336 -10.751 9.75201
thorax -3.56716 -5.10508 13.6547
lowerneck -7.95873 -6.28213 -14.7001
upperneck 19.9515 -7.44216 5.2782
head 8.28636 -4.15126 3.4428
rclavicle 4.55714e-014 5.08889e-014
rhumerus -45.2078 -29.0947 -46.5922
rradius 27.8446
rwrist -12.4248
rhand -18.0476 14.2007
rfingers 7.12502
rthumb 8.22435 -15.6192
lclavicle 4.55714e-014 5.08889e-014
lhumerus 73.9605 -69.2706 50.0598
lradius 68.8747
lwrist -0.074702
lhand -9.84712 25.2205
lfingers 7.12502
lthumb 16.1309 54.5692
rfemur -33.1862 -10.3141 30.2301
rtibia 54.3402
rfoot -21.2623 -5.27716
rtoes 40.3953
lfemur -6.02254 13.1815 -26.5716
ltibia 64.3328
lfoot 7.72612 -13.6921
ltoes -1.53132
474
root 8.48061 16.5616 11.1984 2.44635 28.3627 3.48258
lowerback 3.46211 -7.7727 -4.69282
upperback -4.5659 -10.2569 9.5271
thorax -4.14354 -4.80932 13.4622
lowerneck -8.09681 -6.4669 -14.6246
upperneck 20.3478 -7.73749 5.45368
head 8.47963 -4.27532 3.45374
rclavicle -2.60408e-014 5.40694e-014
rhumerus -44.3226 -27.4595 -48.0502
rradius 29.6207
rwrist -13.9729
rhand -18.6856 15.2162
rfingers 7.12502
rthumb 7.60866 -14.627
lclavicle -2.60408e-014 5.40694e-014
lhumerus 67.1267 -68.9841 54.895
lradius 66.0373
lwrist -2.2411
lhand -7.19976 24.1517
lfingers 7.12502
lthumb 18.6787 53.2749
rfemur -32.3517 -9.9364 30.1065
rtibia 53.6129
rfoot -21.3424 -5.42521
rtoes 40.7289
lfemur -6.89412 13.2824 -25.7947
ltibia 65.2918
lfoot 6.30645 -12.3352
ltoes -2.48102
475
root 8.5203 16.6168 11.2829 2.69738 28.3652 3.90075
lowerback 3.19295 -7.54644 -5.0872
upperback -4.23262 -10.0001 9.31035
thorax -3.67474 -4.71312 13.3568
lowerneck -9.53912 -6.62961 -14.1799
upperneck 20.7217 -7.79879 5.32529
head 8.85065 -4.26422 3.29205
rclavicle -6.17226e-014 -5.08889e-014
rhumerus -42.449 -26.6058 -49.809
rradius 31.4246
rwrist -15.5783
rhand -19.4653 15.7854
rfingers 7.12502
rthumb 6.85599 -14.0836
lclavicle -6.17226e-014 -5.08889e-014
lhumerus 63.7746 -68.0746 56.0702
lradius 64.0574
lwrist -2.26894
lhand -6.464 26.8501
lfingers 7.12502
lthumb 19.3863 55.9037
rfemur -31.6766 -9.84904 29.5844
rtibia 52.9243
rfoot -21.4079 -5.39468
rtoes 40.7574
lfemur -7.64506 13.0631 -25.4513
ltibia 66.1662
lfoot 5.40805 -10.6875
ltoes -0.0952718
476
root 8.56463 16.6693 11.356 2.85899 28.5156 4.16736
lowerback 4.16583 -7.28157 -4.65749
upperback -4.92655 -9.60335 8.90851
thorax -5.2118 -4.39791 12.9174
lowerneck -8.83556 -6.84467 -14.5942
upperneck 20.9678 -8.2221 5.67793
head 8.88698 -4.4789 3.44734
rclavicle -1.11618e-013 4.45278e-014
rhumerus -42.4983 -24.7129 -50.6498
rradius 33.5486
rwrist -17.6747
rhand -20.2498 15.9444
rfingers 7.12502
rthumb 6.09865 -13.9478
lclavicle -1.11618e-013 4.45278e-014
lhumerus 55.8651 -68.0621 61.8413
lradius 61.6791
lwrist -3.63672
lhand -5.36164 27.8024
lfingers 7.12502
lthumb 20.4459 56.7459
rfemur -31.0021 -10.0749 29.1909
rtibia 52.2296
rfoot -21.4317 -5.19798
rtoes 40.875
lfemur -8.47103 12.6831 -25.0289
ltibia 66.9759
lfoot 4.57098 -9.21483
ltoes 2.35781
477
root 8.60144 16.7227 11.4343 2.82153 28.6712 4.05671
lowerback 4.56375 -7.11153 -4.25552
upperback -5.0999 -9.33833 8.76905
thorax -5.77633 -4.23644 12.6191
lowerneck -8.68474 -6.98017 -14.8921
upperneck 20.9205 -8.41951 5.8517
head 8.8883 -4.5797 3.53377
rclavicle 3.97569e-016 -3.49861e-014
rhumerus -41.4738 -23.6284 -51.5099
rradius 35.1943
rwrist -19.3386
rhand -20.6054 16.3319
rfingers 7.12502
rthumb 5.75538 -13.5699
lclavicle 3.97569e-016 -3.49861e-014
lhumerus 49.1733 -67.0434 66.4958
lradius 59.2262
lwrist -5.71094
lhand -4.93009 28.1133
lfingers 7.12502
lthumb 20.8606 57.0118
rfemur -30.2593 -10.1407 29.1863
rtibia 51.5031
rfoot -21.424 -5.12947
rtoes 41.126
lfemur -9.49931 12.4149 -24.264
ltibia 67.6904
lfoot 3.00134 -8.7592
ltoes -0.600471
478
root 8.63982 16.7736 11.5211 2.76695 28.7422 4.08778
lowerback 4.5757 -6.96311 -4.0401
upperback -5.01808 -9.12985 8.57771
thorax -5.80715 -4.14439 12.2665
lowerneck -8.73908 -7.11623 -15.0687
upperneck 20.8373 -8.59957 6.00278
head 8.90615 -4.66036 3.58886
rclavicle 1.05455e-013 -4.13472e-014
rhumerus -40.1141 -23.1079 -52.2794
rradius 36.5982
rwrist -20.6684
rhand -20.6608 16.4145
rfingers 7.12502
rthumb 5.70184 -13.4888
lclavicle 1.05455e-013 -4.13472e-014
lhumerus 42.9585 -65.4509 70.6945
lradius 56.7181
lwrist -7.99818
lhand -4.88107 28.234
lfingers 7.12502
lthumb 20.9077 57.1273
rfemur -29.3717 -10.2017 29.0278
rtibia 50.7602
rfoot -21.4683 -5.01249
rtoes 41.206
lfemur -10.3218 12.1859 -23.6249
ltibia 68.2263
lfoot 0.740243 -9.39086
ltoes -4.14966
479
root 8.6796 16.8205 11.6097 2.64798 28.7164 4.17886
lowerback 4.58236 -6.81698 -3.86192
upperback -4.88489 -8.93164 8.36487
thorax -5.77225 -4.0625 11.9043
lowerneck -8.97403 -7.20606 -15.2996
upperneck 20.9248 -8.68442 6.16553
head 9.00911 -4.69932 3.66387
rclavicle -5.56597e-015 -2.54444e-014
rhumerus -38.8866 -22.36 -53.1333
rradius 38.453
rwrist -22.3258
rhand -20.5007 16.3114
rfingers 7.12502
rthumb 5.85643 -13.5877
lclavicle -5.56597e-015 -2.54444e-014
lhumerus 37.3275 -63.4967 74.3443
lradius 54.2461
lwrist -9.97523
lhand -5.37541 28.2155
lfingers 7.12502
lthumb 20.4327 57.1604
rfemur -28.364 -10.2633 28.8129
rtibia 50.0275
rfoot -21.4743 -4.93047
rtoes 40.9748
lfemur -10.9772 11.9977 -23.0261
ltibia 68.6321
lfoot 0.743751 -7.11564
ltoes -2.65891
